<svg height="8" viewBox="0 0 10 8" width="10" xmlns="http://www.w3.org/2000/svg"><path d="m29.6666667 27.9111532 2.3578437-2.4069655c.2231567-.2278058.5849653-.2278058.808122 0 .2231568.2278058.2231568.5971521 0 .8249579l-3.1865995 3.2529871c-.0735049.2402239-.3348744.4178673-.6460329.4178673s-.572528-.1776434-.6460328-.4178673l-3.1865996-3.2529871c-.2231568-.2278058-.2231568-.5971521 0-.8249579.2231567-.2278058.5849653-.2278058.808122 0l2.3578437 2.4069655v-7.3555976c0-.3068249.2984769-.5555556.6666667-.5555556s.6666667.2487307.6666667.5555556z" fill="#fff" transform="matrix(0 -1 1 0 -20 33)"/></svg>