<svg height="65" viewBox="0 0 77 65" width="77" xmlns="http://www.w3.org/2000/svg"><g fill="#731982" transform=""><path d="m74.9890084 29.3979282c-3.7438482-6.649338-11.7436372-9.6107272-18.9079825-6.9994293l-8.0989501-17.56659346h7.5852608c1.0581968 0 1.9161553.85892278 1.9161553 1.91830883s-.8579585 1.91830883-1.9161553 1.91830883h-.6387185c-.7054645 0-1.2774369.57261519-1.2774369 1.27887256 0 .70625734.5719724 1.27887254 1.2774369 1.27887254h.6387185c2.4692855 0 4.4710292-2.00399328 4.4710292-4.47605393s-2.0017437-4.47605395-4.4710292-4.47605395h-9.5807769c-.7054645 0-1.2774369.57261519-1.2774369 1.27887256 0 .18495694.0400796.36783572.1175242.5358476l3.2906775 7.13738772h-20.1004699l-1.7564758-3.83661765h1.0973183c1.8216251.00367676 3.3012164-1.47182246 3.304889-3.29549472.0033533-1.68859135-1.266419-3.10766031-2.9433743-3.28942007l-7.0182384-.78267001c-2.0261747-.22108509-3.8477997 1.24418314-4.0684769 3.27279473-.2208369 2.02845174 1.2427864 3.852124 3.2691207 4.07304923.1314163.01438732.2636311.02158098.3958458.02174084h3.1527143l2.1550361 4.70752985-4.8989706 10.3588677c-7.9218654-2.9756167-16.75342548 1.041322-19.72570183 8.9720903s1.04015301 16.7722537 8.96201837 19.7478704 16.75342546-1.041322 19.72570186-8.9720903c.4964439-1.3245922.8073401-2.7115295.9240659-4.1213266h2.8014191c.6901353 2.7321513 3.4620138 4.3868526 6.1909384 3.6959417 2.7290843-.6909109 4.381928-3.4657447 3.6917927-6.197896-.2655472-1.0512333-.8585973-1.9902454-1.6932427-2.6813162l8.3697667-17.690644 3.806762 8.2589589c-7.4980756 4.2313097-10.1501943 13.7466011-5.9236346 21.2529436 4.2265597 7.5065023 13.7311694 10.1616016 21.2290854 5.9302919 7.4980756-4.2311499 10.1501943-13.7464413 5.9237943-21.2529436zm-54.6917051-24.56618262c-.6273812 0-1.1362801-.50883142-1.1369189-1.13691771.0006388-.62616797.5063441-1.13404023 1.1318092-1.1369177.0434328 0 .0855882 0 .1277436.00639437l7.0182385.78139113c.4084604.04795772.7008338.41851104.6527702.82743054-.0437522.37311107-.3580017.65542219-.7332488.65861937zm1.6185126 21.03617462c3.4446086 2.0752905 5.7125382 5.6527766 6.1214777 9.6567667h-10.6908696zm-6.5877422 23.7243648c-7.05512441.0231796-12.79305168-5.6836293-12.81636491-12.7465227-.02315354-7.0628934 5.67724902-12.8074291 12.73221371-12.8307685 1.487735-.0049557 2.9647714.2503393 4.3648423.7543749l-5.4303843 11.4868333c-.3019542.6383173-.0298601 1.400845.6077406 1.7031385.1694201.0804091.3544887.1222922.5419526.1230915h12.7092199c-.6628301 6.5310423-6.1519765 11.5021798-12.7092199 11.509853zm18.0655129-14.0675981h-2.8014192c-.4218735-4.9914396-3.2505979-9.4626977-7.5777558-11.9779203l3.9804935-8.4137026 8.1155567 17.7251736c-.8410325.6833976-1.4425457 1.6174541-1.7168752 2.6664493zm4.9283516 3.8366177c-1.4110888 0-2.5548738-1.1450705-2.5548738-2.5577451s1.143785-2.5577451 2.5548738-2.5577451c1.4110887 0 2.5548738 1.1450705 2.5548738 2.5577451s-1.1437851 2.5577451-2.5548738 2.5577451zm.9606326-7.5747622c-.3163254-.063464-.6380798-.096395-.9606326-.0984732-.3001977.0043162-.5992776.0346895-.8942058.0908l-8.2394682-17.9950157h18.6122559zm22.1392592 17.9027771c-7.081791.0292542-12.8465444-5.6943399-12.8757658-12.7840897-.0188422-4.5551842 2.3750746-8.7793002 6.2905785-11.0998145l5.3192473 11.5367094c.2826329.6471095 1.035682.942529 1.6822247.6595785.6463831-.2829506.941471-1.0368459.6588381-1.6839554-.0067065-.0155064-.0137324-.0308528-.0212374-.0458796l-5.3218022-11.5431037c1.3377958-.4688666 2.7445732-.710094 4.1618895-.7136109 7.0817909-.0292542 12.8465443 5.6943399 12.8757657 12.7840897.0293811 7.0895898-5.6879475 12.860822-12.7697384 12.8900762z"/><path d="m61.2220859 52.6642336h-45.9165644-15.3055215v2.3722628h76.5276074v-2.3722628z"/><path d="m18.0858896 62.6277372h-15.3865031c-.70809969 0-1.28220859.5310904-1.28220859 1.1861314 0 .6550411.5741089 1.1861314 1.28220859 1.1861314h15.3865031c.7080997 0 1.2822086-.5310903 1.2822086-1.1861314 0-.655041-.5741089-1.1861314-1.2822086-1.1861314z"/><path d="m46.9144939 62.6277372h-17.773773c-.7011119 0-1.2695553.5310904-1.2695553 1.1861314 0 .6550411.5684434 1.1861314 1.2695553 1.1861314h17.773773c.7011118 0 1.2695552-.5310903 1.2695552-1.1861314 0-.655041-.5684434-1.1861314-1.2695552-1.1861314z"/><path d="m73.8282209 62.6277372h-15.3865031c-.7080997 0-1.2822086.5310904-1.2822086 1.1861314 0 .6550411.5741089 1.1861314 1.2822086 1.1861314h15.3865031c.7080997 0 1.2822085-.5310903 1.2822085-1.1861314 0-.655041-.5741088-1.1861314-1.2822085-1.1861314z"/><path d="m15.2368787 44.9610324c-.7528974.0009316-1.5020667-.1027845-2.2238433-.3080431-.6849826-.2002901-1.4096767.1692374-1.6187698.8253816s.1766756 1.3503279.8616582 1.5506181c.0059972.0017079.0119945.0034158.0181538.0051237.9616663.2735745 1.9598024.4120697 2.9629631.4111381.7161035 0 1.2967016-.5561544 1.2967016-1.2421092s-.5807602-1.2421092-1.2968636-1.2421092z"/><path d="m10.0125859 42.4301454c-1.46507789-1.4241951-2.28823367-3.3810005-2.28126315-5.4222519-.00031684-.7347114.10598369-1.4654693.31557474-2.1696599.1994521-.6700327-.18297632-1.3746977-.85420631-1.5737941-.67123-.1990963-1.37715421.18265-1.57660631.8526827-1.0693421 3.5982828-.0602 7.4919683 2.62345262 10.1208622.23683947.2310403.55479052.3605557.88589052.3605557.69990421-.0001581 1.26736839-.5666101 1.26720999-1.2652659 0-.3396814-.1370342-.6651304-.3800521-.9031288z"/><path d="m65.8733496 27.9380549c-.9411913-.4398732-1.9449986-.7370071-2.9769423-.881343-.7117079-.0994704-1.3708833.3863859-1.4722073 1.0850737-.1013241.6986878.3935861 1.3458042 1.1052939 1.4452747.7722095.1072939 1.5232759.3290666 2.2275023.6578139.1741863.0803108.3644738.1211846.5568756.120067.7185387-.0041513 1.2976958-.5792595 1.2934672-1.2848128-.0029275-.4868142-.2875456-.929721-.7339894-1.1420735z"/><path d="m69.4517821 31.3772193c-.4264472-.583621-1.2468785-.7122432-1.8325261-.2871526-.5687603.412833-.7092698 1.199602-.3185648 1.7828962.9194602 1.3144958 1.4105058 2.8795351 1.406079 4.4820007.0003279.7591487-.1093581 1.514375-.325287 2.2423079-.2060915.6916506.1890403 1.4190932.8827343 1.6251829.1211628.0366091.2472443.0552405.3738176.0549136.5802371-.0003268 1.0912852-.3804732 1.2565519-.9348397.9112625-3.0516306.3803759-6.350863-1.4428049-8.965309z"/></g></svg>