<svg height="65" viewBox="0 0 54 65" width="54" xmlns="http://www.w3.org/2000/svg"><g fill="#731982" transform=""><path d="m23.12253 4.110672h8.221344v2.826087h-8.221344z"/><path d="m13.616601 48.814229h2.826087v2.826087h-2.826087z"/><path d="m13.616601 43.418972h2.826087v2.826087h-2.826087z"/><path d="m19.011858 48.814229h2.826087v2.826087h-2.826087z"/><path d="m52.6037138 23.020791c-1.8632589 0-4.6736376.6456836-6.7440237 2.5923828v-21.5506738c0-2.24364258-1.8116668-4.0625-4.0464395-4.0625h-29.673932c-2.2347727 0-4.04643955 1.81885742-4.04643955 4.0625v16.25h-4.04643952c-2.23477268 0-4.04643953 1.8188574-4.04643953 4.0625v2.708291c0 1.0406348.39022851 1.9896094 1.03120982 2.708291-.64098131.7188086-1.03120982 1.6676563-1.03120982 2.708291v2.7082911c0 1.0406347.39022851 1.9896093 1.03120982 2.708291-.64098131.7188086-1.03120982 1.6676562-1.03120982 2.708291v2.708291c0 1.0406348.39022851 1.9896094 1.03120982 2.708291-.64098131.7188086-1.03120982 1.6676563-1.03120982 2.708291v2.7082911c0 2.2436425 1.81166685 4.0625 4.04643953 4.0625h4.04643952v5.4170898c0 2.2436426 1.81166685 4.0625 4.04643955 4.0625h29.673932c2.2347727 0 4.0464395-1.8188574 4.0464395-4.0625v-29.3732715c.2159787-2.8993555 2.4386121-5.3184472 5.3952949-5.692959v37.7745215h2.6975842v-39.270791c-.0001265-.7478809-.6039311-1.354209-1.3488554-1.354209zm-40.4643952-20.31249998h29.673932c.7447978 0 1.3487289.60632812 1.3487289 1.35420898v4.0625h-32.3715162v-4.0625c0-.74788086.6039311-1.35420898 1.3488553-1.35420898zm-9.4417344 40.62499998v-2.708291c0-.7478809.6039311-1.354209 1.34885533-1.354209h4.04643952v5.416709h-4.04643952c-.74492423 0-1.34885533-.6063281-1.34885533-1.354209zm0-8.125v-2.708291c0-.7478809.6039311-1.354209 1.34885533-1.354209h4.04643952v5.416709h-4.04643952c-.74492423 0-1.34885533-.6063281-1.34885533-1.354209zm0-10.833291c0-.7478809.6039311-1.354209 1.34885533-1.354209h4.04643952v5.416709h-4.04643952c-.74492423 0-1.34885533-.6063281-1.34885533-1.354209zm1.34885533 28.4375c-.74492423 0-1.34885533-.6063281-1.34885533-1.354209v-2.708291c0-.7478809.6039311-1.354209 1.34885533-1.354209h4.04643952v5.416709zm37.76668457 9.479209h-29.6738055c-.7449242 0-1.3488553-.6063281-1.3488553-1.354209v-4.0625h32.3715162v4.0625c0 .7478809-.6039311 1.354209-1.3488554 1.354209zm1.3488554-8.125h-32.3715162v-8.125-8.125-8.125-8.125-10.833418h32.3715162z"/><path d="m27.1047431 19.0118577c-7.4492248 0-13.4881423 6.038791-13.4881423 13.4881423s6.0389175 13.4881423 13.4881423 13.4881423c7.4459371-.0082193 13.479923-6.0422052 13.4881423-13.4881423 0-7.4492248-6.0389175-13.4881423-13.4881423-13.4881423zm0 24.2785803c-5.9593799 0-10.790438-4.8310582-10.790438-10.790438s4.8310581-10.790438 10.790438-10.790438c5.9565979.0067019 10.783736 4.8338401 10.7904379 10.790438 0 5.9593798-4.8310581 10.790438-10.7904379 10.790438z"/><path d="m27.2332016 28.4535573c.756749 0 1.3702668.6039316 1.3702668 1.3488564h2.7404051c0-1.76172-1.1440514-3.2596625-2.7404051-3.8152897v-1.5800094h-2.7404052v1.5800094c-1.5964822.5555008-2.7405336 2.0535697-2.7405336 3.8152897 0 2.2347744 1.8404249 4.0464427 4.110672 4.0464427.756749 0 1.3702668.6039316 1.3702668 1.3488564s-.6135178 1.3488563-1.3702668 1.3488563-1.3702668-.6039315-1.3702668-1.3488563h-2.7404052c0 1.7617199 1.1440514 3.2596624 2.7404052 3.8152896v1.579883h2.7404051v-1.5800094c1.5963538-.5556272 2.7404052-2.0535697 2.7404052-3.8152897 0-2.2347744-1.8404249-4.0464427-4.110672-4.0464427-.756749 0-1.3702668-.6039316-1.3702668-1.3488564.0001285-.7447983.6136463-1.3487299 1.3703953-1.3487299z"/><path d="m38.023715 13.616601h2.826087v2.826087h-2.826087z"/><path d="m38.023715 19.011858h2.826087v2.826087h-2.826087z"/><path d="m32.628459 13.616601h2.826087v2.826087h-2.826087z"/></g></svg>