<svg height="65" viewBox="0 0 64 65" width="64" xmlns="http://www.w3.org/2000/svg"><g fill="#731982" transform=""><path d="m31.5151515 0c-17.4053504 0-31.5151515 14.1098011-31.5151515 31.5151515s14.1098011 31.5151515 31.5151515 31.5151515v-2.6262216c-15.9549148 0-28.88892991-12.9340151-28.88892991-28.8889299s12.93401511-28.88892991 28.88892991-28.88892991 28.8889299 12.93401511 28.8889299 28.88892991h2.6262216c0-17.4053504-14.1098011-31.5151515-31.5151515-31.5151515z"/><path d="m32.0076377 6.89393939c-13.8699258 0-25.11369831 11.24374481-25.11369831 25.11363641 0 13.8698915 11.24377251 25.1136363 25.11369831 25.1136363v-2.643495c-12.4099466 0-22.47007285-10.0602253-22.47007285-22.4700174 0-12.4097922 10.06012625-22.47014137 22.47007285-22.47014137 12.4099467 0 22.4700729 10.06010137 22.4700729 22.47001747h2.6435015c.0001239-13.8698916-11.2436486-25.11363641-25.1135744-25.11363641z"/><path d="m61.7170127 44.6875h-3.3104321c-.1388631-.4021875-.2975462-.7967578-.4753107-1.1821875l2.341345-2.415791c.5126117-.5287598.5126117-1.3859473 0-1.914834l-3.7148339-3.8309375c-.5127348-.5286328-1.3439436-.5286328-1.8568015 0l-2.3425761 2.415791c-.3737485-.1834473-.7563607-.3469629-1.1463591-.490166v-3.415166c0-.7478809-.5879523-1.354209-1.3131672-1.354209h-5.2525458c-.725215 0-1.3131672.6063281-1.3131672 1.354209v3.415166c-.3898754.1426953-.7726107.305957-1.1463592.4888965l-2.342453-2.4145215c-.5127347-.5286328-1.3439436-.5286328-1.8568014 0l-3.714834 3.8309375c-.5126116.5287598-.5126116 1.3859473 0 1.914834l2.3425761 2.415791c-.1778876.3854297-.3364476.78-.4753107 1.1821875h-3.3116632c-.7252149 0-1.3131672.6063281-1.3131672 1.354209v5.416709c0 .7478808.5879523 1.354209 1.3131672 1.354209h3.3116632c.1383707.4020605.2966845.7967578.4740796 1.1821875l-2.341345 2.415664c-.5126116.5287598-.5126116 1.3859473 0 1.914834l3.714834 3.8309375c.5127347.5286328 1.3439436.5286328 1.8568014 0l2.3425761-2.415791c.3737486.1834473.7563607.3469629 1.1463592.490166v3.415166c0 .7478809.5879522 1.354209 1.3131672 1.354209h5.2525458c.7252149 0 1.3131672-.6063281 1.3131672-1.354209v-3.4138965c.3899985-.1432031.7726106-.3068457 1.1463591-.490166l2.3425761 2.4145215c.5127348.5286328 1.3439436.5286328 1.8568015 0l3.7148339-3.8309375c.5126117-.5287598.5126117-1.3859473 0-1.914834l-2.342576-2.415791c.1778875-.3854297.3364475-.78.4753106-1.1821875h3.3116632c.725215 0 1.3131672-.6063281 1.3131672-1.354209v-5.416709c-.0001231-.7477539-.5880753-1.354082-1.3132903-1.354082zm-1.312921 5.4153125h-2.9690604c-.5986624.000127-1.1214918.4178027-1.2710651 1.015625-.2143268.8555371-.5436342 1.6760352-.97832 2.4375-.3049325.5321875-.2217132 1.2097363.2022624 1.646709l2.101043 2.166709-1.8568015 1.914834-2.1010429-2.166709c-.4237294-.4372266-1.0807439-.5230469-1.5968025-.208584-.7383873.4482715-1.5340186.7878711-2.3636271 1.0088965-.5797042.154375-.9847216.6934179-.9848447 1.310791v3.063125h-2.6262113l.0013542-3.060459c-.0001231-.617373-.4051405-1.156543-.9848447-1.310791-.8296085-.2210254-1.6252398-.560625-2.3636271-1.0088965-.5160586-.3144629-1.1730731-.2286426-1.5968025.208584l-2.1010429 2.166709-1.8568015-1.914834 2.101043-2.166709c.4239756-.4369727.507195-1.1145215.2022624-1.646709-.4346858-.7614648-.7639932-1.5819629-.97832-2.4375-.1496964-.5978222-.6724027-1.015498-1.2710651-1.015625h-2.9702914v-2.708291h2.9689372c.5986625-.000127 1.1214919-.4178027 1.2710651-1.015625.2143268-.8555371.5436343-1.6760352.9783201-2.4375.3049325-.5321875.2217131-1.2097363-.2022625-1.646709l-2.1010429-2.166709 1.8568014-1.914834 2.101043 2.166709c.4237294.4372266 1.0807438.5230469 1.5968024.208584.7383873-.4482715 1.5340187-.7878711 2.3636272-1.0088965.5797041-.154375.9847215-.6934179.9848446-1.310791v-3.063125h2.6249803v3.0617285c.0001231.6173731.4051404 1.156543.9848446 1.310791.8296085.2210254 1.6252399.560625 2.3636272 1.0088965.5160585.3144629 1.173073.2286426 1.5968024-.208584l2.101043-2.1667089 1.8568014 1.9148339-2.1010429 2.166709c-.4239756.4369727-.507195 1.1145215-.2022625 1.646709.4346858.7614649.7639932 1.5819629.9783201 2.4375.1496963.5978223.6724026 1.0154981 1.2710651 1.015625h2.9702914z"/><path d="m47.7651515 42.3484848c-2.9915001 0-5.4166667 2.4251666-5.4166667 5.4166667s2.4250397 5.4166667 5.4166667 5.4166667c2.9915001 0 5.4166667-2.4250397 5.4166667-5.4166667 0-2.9915001-2.4251666-5.4166667-5.4166667-5.4166667zm0 8.1249366c-1.49575 0-2.7082698-1.2125199-2.7082698-2.7082699s1.2125198-2.7082698 2.7082698-2.7082698 2.7082699 1.2125198 2.7082699 2.7082698-1.2125199 2.7082699-2.7082699 2.7082699z"/><path d="m30.530303 7.878788h2.954545v7.878788h-2.954545z"/><path d="m7.878788 30.530303h7.878788v2.954545h-7.878788z"/><path d="m15.757576 14.772727h2.954545v7.878788h-2.954545z" transform="matrix(.70710678 -.70710678 .70710678 .70710678 -8.183498 17.667531)"/><path d="m12.80303 43.333333h7.878788v2.954545h-7.878788z" transform="matrix(.70710678 -.70710678 .70710678 .70710678 -26.782141 24.963404)"/><path d="m30.8417773 21.6666667v10.3559337l-6.2205652 6.4258085 1.8687218 1.930379 6.6077399-6.8257578c.2479157-.2559675.3871747-.6031874.3871747-.9651255v-10.9212379z"/></g></svg>