<svg height="65" viewBox="0 0 60 65" width="60" xmlns="http://www.w3.org/2000/svg"><g fill="#731982" transform=""><path d="m36.3454313 33.1070093-4.8437457-1.8749997-2.7801898-2.7900403c-.1808068-.1814557-.4174025-.2746013-.6559001-.2788004v-2.2800302c1.3157308-1.4029095 2.2505755-3.183873 2.6205574-5.1918469.0007608-.0008907.0016484-.0019087.0025359-.0026722.2421746.0143791.4866315-.0034357.7282989-.0530624 1.3067285-.2684933 2.2552669-1.4860025 2.2552669-2.8950199v-.7307854c0-.825967-.3382837-1.5829655-.8870438-2.1190615.8917351-4.8190101.1718045-8.74410276-2.0910699-11.36655739-2.1816001-2.52829108-5.6988375-3.73587488-10.1718405-3.49372188-4.1659103.2259925-6.8414959 2.16232576-7.6624805 2.84501143-1.1553377.15066167-4.45030702.98629947-4.45030702 5.61023835 0 2.56035759.41448627 4.68972609.70560297 5.87007879-.98049016.4600017-1.63994048 1.4870205-1.63994048 2.6648283v.7198421c0 1.4090174.94841153 2.6265265 2.25539363 2.8950199.24141384.0496267.4862511.0674414.7281721.0530624.0008876.0008907.0017751.0019087.0025359.0027994.3699819 2.0078467 1.3048266 3.7888101 2.6205574 5.1917196v2.2800302c-.2384976.0041992-.4750933.0973448-.6559001.2788004l-2.78006301 2.7900403-5.44816781 2.1090089c-2.62005026 1.0141667-4.30474867 3.5875036-4.19241008 6.4035025l.77381759 19.3899274c.02054047.5137003.44187356.9161858.94955267.9161858.01293289 0 .02586577-.0002545.03879866-.0007635.52479617-.0211231.93306958-.4650915.91214874-.9917711l-.7738176-19.3896729c-.02054046-.5153545.04425076-1.0191295.18283549-1.4956733l3.08893072 3.1000164c.87930936.8824651 1.36353177 2.0558192 1.36353177 3.3037406v14.5200181c0 .5270613.42577085.9543602.95094739.9543602.52517655 0 .9509474-.4272989.9509474-.9543602v-14.5200181c0-1.7578043-.68201947-3.4105017-1.92066015-4.6534604l-3.48541239-3.4979211c.48840658-.5668899 1.1153979-1.0204019 1.84534512-1.3030198l5.08325759-1.9677635 3.8806261 5.8417025c.470402.7082625 1.2243131 1.162538 2.068374 1.2463945.0939536.0092891.1876536.01387.2809733.01387.5187101 0 1.0208103-.145699 1.4587533-.4131744l-.8334103 19.2117802c-.0228228.5265523.3839291.9720477.9087253.9949523.014074.0006363.028148.0008908.0420953.0008908.5061576 0 .9271103-.4003223.9492991-.9128774l.7728032-17.8133243h2.1609329l.7728032 17.8133243c.0221888.5124278.4431415.9128774.9492991.9128774.0139472 0 .0280212-.0002545.0420953-.0008908.5246693-.0229046.931548-.4684.9087253-.9949523l-.8334103-19.2117802c.437943.2674754.9399164.4131744 1.4586265.4131744.0931929 0 .1870197-.0045809.2808465-.01387.8433001-.083602 1.5972112-.5380047 2.06774-1.2462672l3.8806261-5.8417026 4.4787086 1.7337544c.1125922.0435189.2282274.064133.3420875.064133.3816469 0 .7418658-.2323549.8874241-.6111722.1891752-.4918137-.0549013-1.0441974-.5448294-1.2340514zm-24.0159863-12.7731572c-.1719313-.9387087-1.0386881-1.6196129-1.9720113-1.5514079-.0801331.0057261-.1628022.0001272-.245598-.0167968-.41892402-.0860196-.73476534-.5268068-.73476534-1.0251101v-.7198421c0-.4876144.32699911-.9271291.74440164-1.0006785.3513433-.0618425.6877251.067696.9009909.3467509.1771298.2317186.4132184.3973956.6834142.4793433.3947066.1194859.8303673.0493722 1.1652276-.1879453.77293-.5475483 1.4280694-1.242068 1.9470331-2.0640903.2811-.4452409.1493621-1.0349082-.2941598-1.3170171-.4439022-.2823634-1.0312073-.1498982-1.3123074.2952154-.2959348.4686545-.6499408.8804291-1.0560588 1.228707-.3235757-.2860536-.7059833-.4907957-1.1167926-.6036647-.2547271-.9626313-.7274113-3.1005254-.7274113-5.71178224 0-1.55433467.4800382-2.64739524 1.4269282-3.24838768.7370477-.46801825 1.515303-.48596022 1.5155566-.48608747.2431889 0 .4797846-.09607226.6564073-.26378517.0243442-.02328639 2.4904678-2.32189478 6.7145761-2.55094123 3.8643967-.2100865 6.8489767.7715048 8.6313057 2.83712205 1.8055322 2.09259384 2.4005716 5.30776974 1.7360496 9.33020724-.2857914-.0133611-.6026471.0075076-.9177276.0629878l-.9529761-2.2969542c-.1824551-.4397692-.6603379-.6770868-1.1193285-.5562011-.0928124.0244316-9.3353872 2.3911177-13.2324964-2.47777366-.3287742-.41088389-.9273639-.47654387-1.3369052-.14633524-.4094146.33008139-.4748397.93069209-.1458119 1.3417032 3.9530249 4.9391323 11.8250942 3.8318199 14.3859321 3.3129025l.7407247 1.7852898c.3029084.7298947 1.0776135 1.1285628 1.8417949.9478706.2996118-.0708772.6255966-.0837292.7678583-.0553529.4257708.0850017.7468107.5096283.7468107.9878264v.7307855c0 .4984305-.3159681.9390904-.7346386 1.0251101-.0830494.0170512-.1654648.0226501-.2457248.0167967-.9329428-.0684594-1.8002068.6126993-1.9718845 1.5515352-.7308348 3.9927887-4.197989 6.8907353-8.2442067 6.8907353-4.0463446 0-7.5134988-2.8979466-8.2442068-6.8907353zm4.5116748 17.7438469c-.1953879.195962-.4650766.2927977-.7397102.2653122-.2747604-.0272311-.5201049-.1750933-.6732708-.4056667l-3.9095349-5.8854759 1.6229502-1.6287747 6.040925 5.3047158zm2.734798 1.3381403.0627625-1.4465556.9348447-.938327.9349714.938327.0627626 1.4465556zm.9976072-5.002629-5.5900492-4.9088472v-2.0292243c1.6194 1.0531047 3.5439908 1.6582963 5.5900492 1.6582963s3.9706491-.6051916 5.5899223-1.6582963v2.0292243zm5.1456397 3.5240069c-.1532927.2307007-.3986371.3785629-.6733975.405794-.1615343.016415-.4721771.0027994-.7394567-.2653122l-2.3413593-2.3498893 6.0407982-5.3047158 1.6229502 1.6287747z"/><path d="m59.0607859 44.7230301c0-2.2072899-1.8094007-4.0029651-4.0335622-4.0029651h-6.2154037v-2.0996915c0-1.6464586-1.3497627-2.9858557-3.0086783-2.9858557h-6.1495585c-1.6590434 0-3.0086783 1.339524-3.0086783 2.9858557v2.0996915h-6.2154037c-2.2241615 0-4.0335621 1.7956752-4.0335621 4.0029651v2.8253463c0 1.0415982.3533906 2.0418319 1.0248838 2.9668229v10.5852468c0 2.1501916 1.7627336 3.8995539 3.9293605 3.8995539h22.756486c2.1666269 0 3.9293605-1.7493623 3.9293605-3.8995539v-10.5852468c.6714932-.9251178 1.0248838-1.9253516 1.0248838-2.9669498zm-20.4981874-6.1027835c.0001279-.5969935.4895559-1.0825821 1.0909847-1.0825821h6.1494307c.6015566 0 1.0908568.4857155 1.0908568 1.0825821v2.0996915h-8.3312722zm18.580238 8.9282567c0 1.6335163-1.5575267 3.2534559-4.2316091 4.4635573v-.1690107c0-.5255573-.4293363-.9516368-.9589108-.9516368h-4.0995352c-.5295744 0-.9589107.4260795-.9589107.9516368v3.0513283c0 1.6464586 1.3497628 2.9858557 3.0086783 2.9858557 1.6589156 0 3.0086784-1.339524 3.0086784-2.9858557v-.8138398c1.2450497-.4943436 2.3199247-1.0696398 3.2067253-1.7087591v8.7287936c.0001279 1.1007266-.9021432 1.9961535-2.0114111 1.9961535h-22.7563582c-1.1091401 0-2.011539-.8955537-2.011539-1.9962803v-8.7287936c.8868006.6391193 1.9615478 1.2144154 3.2067253 1.7088859v.8138398c0 1.6464586 1.3497628 2.9858557 3.0086783 2.9858557 1.4249414 0 2.6208949-.9885603 2.9301755-2.3107011 1.376868.1825874 2.7993801.2764823 4.244139.2764823.350322 0 .7053747-.005583 1.0551853-.016622.5293188-.0166219.9448468-.4560243.9279699-.9813279-.0167489-.5253035-.4556744-.9390752-.9888287-.9209306-.3297375.0104045-.6642055.0156068-.9944544.0156068-1.4216171 0-2.8186861-.0960519-4.1656361-.2832071v-1.8164844c0-.5255573-.4293363-.9516368-.9589107-.9516368h-4.0995352c-.5295744 0-.9589107.4260795-.9589107.9516368v.1690107c-2.6740824-1.2101014-4.2316092-2.8301679-4.2316092-4.4635573v-2.8253463c0-1.1578248.9490659-2.0996915 2.1157407-2.0996915h24.5977225c1.1666747 0 2.1157406.9418667 2.1157406 2.0996915zm-6.1491749 5.2460566v2.0996915c0 .5969935-.489428 1.082582-1.0908569 1.082582-.6014288 0-1.0908568-.4857154-1.0908568-1.082582v-2.0996915zm-16.5305983 2.0996915v-2.0996915h2.1817137v2.0996915c0 .5969935-.489428 1.082582-1.0908568 1.082582s-1.0908569-.4855885-1.0908569-1.082582z"/></g></svg>