<svg height="65" viewBox="0 0 65 65" width="65" xmlns="http://www.w3.org/2000/svg"><g fill="#731982" transform=""><path d="m65 52v-50.91666667c0-.65-.4333333-1.08333333-1.0833333-1.08333333h-47.6666667c-.65 0-1.0833333.43333333-1.0833333 1.08333333v62.83333337c0 .65.4333333 1.0833333 1.0833333 1.0833333h35.75c.325 0 .5416667-.1083333.7583333-.325l11.9166667-11.9166667c.1083333-.1083333.1083333-.2166666.2166667-.325v-.1083333c.1083333-.1083333.1083333-.2166667.1083333-.325zm-47.6666667-49.83333333h45.5v48.75000003h-10.8333333c-.65 0-1.0833333.4333333-1.0833333 1.0833333v10.8333333h-33.5833334zm35.75 59.15000003v-8.2333334h8.2333334l-4.1166667 4.1166667z"/><path d="m26 17.3333333h2.1666667v-4.3333333h4.3333333v-2.1666667h-4.3333333v-4.3333333h-2.1666667v4.3333333h-4.3333333v2.1666667h4.3333333z"/><path d="m52 8.666667h6.5v2.166667h-6.5z"/><path d="m45.5 13h13v2.166667h-13z"/><path d="m22.75 32.5h34.6666667c.65 0 1.0833333-.4333333 1.0833333-1.0833333v-8.6666667c0-.65-.4333333-1.0833333-1.0833333-1.0833333h-34.6666667c-.65 0-1.0833333.4333333-1.0833333 1.0833333v8.6666667c0 .65.4333333 1.0833333 1.0833333 1.0833333zm1.0833333-8.6666667h32.5v6.5h-32.5z"/><path d="m21.666667 35.75h2.166667v2.166667h-2.166667z"/><path d="m26 35.75h10.833333v2.166667h-10.833333z"/><path d="m43.333333 35.75h2.166667v2.166667h-2.166667z"/><path d="m47.666667 35.75h10.833333v2.166667h-10.833333z"/><path d="m21.666667 41.166667h2.166667v2.166667h-2.166667z"/><path d="m26 41.166667h10.833333v2.166667h-10.833333z"/><path d="m43.333333 41.166667h2.166667v2.166667h-2.166667z"/><path d="m47.666667 41.166667h10.833333v2.166667h-10.833333z"/><path d="m21.666667 46.583333h2.166667v2.166667h-2.166667z"/><path d="m26 46.583333h10.833333v2.166667h-10.833333z"/><path d="m21.666667 52h2.166667v2.166667h-2.166667z"/><path d="m26 52h10.833333v2.166667h-10.833333z"/><path d="m21.666667 57.416667h2.166667v2.166667h-2.166667z"/><path d="m26 57.416667h10.833333v2.166667h-10.833333z"/><path d="m43.333333 46.583333h2.166667v2.166667h-2.166667z"/><path d="m47.666667 46.583333h10.833333v2.166667h-10.833333z"/><path d="m9.64166667.75833333c-.10833334-.43333333-.54166667-.75833333-.975-.75833333-.43333334 0-.86666667.325-.975.75833333l-3.14166667 9.42499997c-.10833333.1083334-.21666667.325-.21666667.5416667v.1083333 41.1666667 5.4166667h-2.16666666v-31.4166667h-2.16666667v32.5c0 .65.43333333 1.0833333 1.08333333 1.0833333h3.25v4.3333334c0 .65.43333334 1.0833333 1.08333334 1.0833333h6.50000003c.65 0 1.0833333-.4333333 1.0833333-1.0833333v-11.9166667-41.1666667c0-.2166666-.1083333-.5416666-.2166667-.65zm-3.14166667 11.15833337h4.3333333v39h-4.3333333zm2.16666667-7.3666667 1.73333333 5.2h-3.46666667zm2.16666663 58.2833333h-4.3333333v-9.75h4.3333333z"/></g></svg>