<svg height="65" viewBox="0 0 66 65" width="66" xmlns="http://www.w3.org/2000/svg"><g fill="#731982" transform=""><path d="m17.0961564 13.9671959c-1.2424847-1.2787772-2.9545242-1.9985703-4.7413723-1.9934849h-.3400891c-1.7850538-.0035736-3.49460894.7160822-4.73585141 1.9934849-1.16767611 1.1954862-1.78767624 2.8180102-1.71369582 4.4839666l.1291897 2.9599897c.19571687 3.387165 3.04189289 6.01619 6.44844303 5.9562645h.0839181c3.4065501.0599255 6.2527261-2.5690995 6.448443-5.9562645l.1347106-2.9599897c.0739805-1.6659564-.5460197-3.2884804-1.7136958-4.4839666zm-.6271773 7.3526936c-.1496172 2.2077598-2.0209354 3.9053282-4.2422805 3.8484264h-.0839181c-2.22134509.0569018-4.09266338-1.6406666-4.2422805-3.8484264l-.03864649-.8983327c2.10485351-.0933243 4.12592699-.848578 5.77268149-2.1573179.6790741 1.0000411 1.7041722 1.7159858 2.8797157 2.0110777zm-1.3846486-5.1975748c-.0614203-.4689583-.4172441-.8462415-.8833483-.936817-.464448-.0956609-.9378676.117377-1.172645.5277842-.0143544.0230906-1.3846485 2.181508-5.25150597 2.5113732-.0095236-1.0187335.38398049-2.0002197 1.09535196-2.7323828.82441246-.8459666 1.95868701-1.3222094 3.14251181-1.3194605h.3400891c1.1838248-.0027489 2.3180993.4734939 3.1425118 1.3194605.6441542.6683892 1.0264784 1.5445934 1.077685 2.4695902-.7640964-.3400359-1.3183974-1.0239563-1.4906504-1.8395478z"/><path d="m59.4316853 40.0527222c-1.2424828-1.2787771-2.9545198-1.9985703-4.7413652-1.9934849h-.3400886c-1.7850511-.0035735-3.4946037.7160822-4.7358443 1.9934849-1.1676743 1.1954862-1.7878116 2.8180103-1.7136932 4.4839666l.1291895 2.9599897c.1957166 3.387165 3.0418883 6.0161901 6.4484333 5.9562646h.083918c3.406545.0599255 6.2527168-2.5690996 6.4484333-5.9562646l.1347105-2.9599897c.0739803-1.6659563-.5460189-3.2884804-1.7136933-4.4839666zm-.4946743 4.394903-.1325021 2.9577906c-.1496169 2.2077598-2.0209324 3.9053282-4.2422741 3.8484264h-.083918c-2.2213417.0569018-4.0926572-1.6406666-4.2422741-3.8484264l-.1325021-2.9632884c-.0426491-1.0653269.3566514-2.1011034 1.1041838-2.8643288.8244113-.8459666 1.9586841-1.3222094 3.1425071-1.3194605h.3400886c1.1838231-.0027489 2.3180959.4734939 3.1425071 1.3194605.7489126.7645999 1.1483511 1.8027129 1.1041838 2.8698266z"/><path d="m33.7173217 15.8122494c-1.171144-1.1268588-3.0296392-1.1268588-4.2007831 0l-12.1851362 12.1211629c-.2049229.2038471-.4829741.3183923-.7727585.3181208h-11.10130955c-3.01244856.0035287-5.45378708 2.4320499-5.45733435 5.4286828v15.2003118c0 1.7989298 1.46597644 3.2572097 3.27440061 3.2572097.3717809 0 .74083314-.062837 1.09146687-.1856609v1.2713975c0 .599598.48870429 1.0857365 1.09146687 1.0857365h13.09760245c.6027626 0 1.0914669-.4861385 1.0914669-1.0857365v-17.6041326c-.0001365-.2746913.1043715-.5393396.2925131-.7404723l13.8496231-14.8170468c1.1600928-1.1929531 1.1281674-3.0955707-.0712182-4.2495729zm-1.4875329 2.731306c-.0039566.0038001-.0079132.0076002-.0118697.0112645l-13.8812757 14.8463617c-.5621054.6032624-.8741285 1.3955787-.8731735 2.2181598v16.518396h-10.91466868v-16.2860484c0-.599598-.48870429-1.0857365-1.09146687-1.0857365s-1.09146687.4861385-1.09146687 1.0857365v13.0288387c0 .5995981-.48870429 1.0857366-1.09146687 1.0857366s-1.09146687-.4861385-1.09146687-1.0857366v-15.2003118c0-1.7989297 1.46597644-3.2572097 3.27440061-3.2572097h11.10130955c.8692169.0027144 1.7033705-.3409212 2.3160927-.9543624l12.1851361-12.1211629c.3322152-.3135065.8531178-.3135065 1.185333 0 .327713.3345426.3208913.8700821-.0154169 1.1960745z"/><path d="m11.7598684 31.6447368c-.5903988 0-1.0690789.4923567-1.0690789 1.0996241v13.1954887c0 .6072674.4786801 1.0996241 1.0690789 1.0996241.5903989 0 1.069079-.4923567 1.069079-1.0996241v-13.1954887c0-.6072674-.4786801-1.0996241-1.069079-1.0996241z"/><path d="m35.4835831 40.0527104c-1.2417559-1.2774038-2.9520181-1.9970602-4.7378103-1.9934866h-.3402298c-1.7857922-.0035736-3.4960544.7160828-4.7378103 1.9934866-1.1681591 1.1954873-1.7885538 2.8180128-1.7144047 4.4839705l.1292432 2.9599923c.1957978 3.3871681 3.0431511 6.0161954 6.4511103 5.9562699h.0839528c3.4079592.0599255 6.2553125-2.5691018 6.4511103-5.9562699l.1292432-2.9599923c.0741491-1.6659577-.5462456-3.2884832-1.7144047-4.4839705zm-.4893565 4.3949069-.132557 2.9577932c-.1496791 2.2077617-2.0217714 3.9053316-4.2440353 3.8484298h-.0839528c-2.2222639.0569018-4.0943562-1.6406681-4.2440353-3.8484298l-.132557-2.963291c-.0426668-1.0653278.3567994-2.1011052 1.1046422-2.8643313.8247534-.8459674 1.9594971-1.3222106 3.1438116-1.3194617h.3402298c1.1843145-.0027489 2.3190582.4734943 3.1438116 1.3194617.7492236.7646005 1.1488279 1.8027145 1.1046422 2.8698291z"/><path d="m36.2100674 54.3092105h-11.268819c-2.9093487.00294-5.267197 2.3145559-5.2701958 5.1668586v4.454852c0 .5903988.4882537 1.0690789 1.0904606 1.0690789.6022068 0 1.0904605-.4786801 1.0904605-1.0690789v-4.454852c.001772-1.6720395 1.3839307-3.0269634 3.0892747-3.0287007h11.268819c1.7054803.0017373 3.0875027 1.3566612 3.0892747 3.0287007v4.454852c0 .5903988.4882537 1.0690789 1.0904605 1.0690789.6022069 0 1.0904606-.4786801 1.0904606-1.0690789v-4.454852c-.0029988-2.8523027-2.3608471-5.1639186-5.2701958-5.1668586z"/><path d="m60.1574359 54.3092105h-11.2688191c-2.9093487.00294-5.267197 2.3145559-5.2701957 5.1668586v4.454852c0 .5903988.4882537 1.0690789 1.0904605 1.0690789s1.0904605-.4786801 1.0904605-1.0690789v-4.454852c.001772-1.6720395 1.3839307-3.0269634 3.0892747-3.0287007h11.2688191c1.7054802.0017373 3.0875026 1.3566612 3.0892746 3.0287007v4.454852c0 .5903988.4882537 1.0690789 1.0904606 1.0690789.6022068 0 1.0904605-.4786801 1.0904605-1.0690789v-4.454852c-.0029988-2.8523027-2.3608471-5.1639186-5.2701957-5.1668586z"/><path d="m61.7999934 0h-38.073671c-1.7812458.01741627-3.2125338 1.47806968-3.1999239 3.26555024v16.32775116c0 .6011334.4856833 1.0885168 1.0847199 1.0885168.5990367 0 1.08472-.4873834 1.08472-1.0885168v-13.06220092h40.134639v26.12440192c.0139657.5857581-.4467691 1.0724611-1.030484 1.0885167h-37.016069c-.5990366 0-1.08472.4873834-1.08472 1.0885168s.4856834 1.0885167 1.08472 1.0885167h37.016069c1.7812458-.0174162 3.2125338-1.4780696 3.1999239-3.2655502v-29.38995216c.0126099-1.78748056-1.4186781-3.24813397-3.1999239-3.26555024zm1.0307933 4.35406699h-40.1352576l.0003093-1.08851675c-.0139658-.58575807.4467691-1.07246113 1.030484-1.08851675h38.073671c.5837149.01605562 1.0444497.50275868 1.030484 1.08851675z"/><path d="m59.6546053 14.1118421c-.5903989 0-1.069079.4830987-1.069079 1.0789474v15.375c0 .5958487.4786801 1.0789473 1.069079 1.0789473.5903988 0 1.0690789-.4830986 1.0690789-1.0789473v-15.375c0-.5958487-.4786801-1.0789474-1.0690789-1.0789474z"/><path d="m55.3782895 20.5263158c-.5903989 0-1.069079.4978273-1.069079 1.1118421v8.8947368c0 .6140148.4786801 1.1118421 1.069079 1.1118421.5903988 0 1.0690789-.4978273 1.0690789-1.1118421v-8.8947368c0-.6140148-.4786801-1.1118421-1.0690789-1.1118421z"/><path d="m51.1019737 18.3881579c-.5903989 0-1.069079.4946361-1.069079 1.1047149v11.0471491c0 .6100788.4786801 1.1047149 1.069079 1.1047149.5903988 0 1.0690789-.4946361 1.0690789-1.1047149v-11.0471491c0-.6100788-.4786801-1.1047149-1.0690789-1.1047149z"/><path d="m46.8256579 25.2302632c-.5903989 0-1.069079.4786801-1.069079 1.0690789v4.2763158c0 .5903988.4786801 1.0690789 1.069079 1.0690789.5903988 0 1.0690789-.4786801 1.0690789-1.0690789v-4.2763158c0-.5903988-.4786801-1.0690789-1.0690789-1.0690789z"/><path d="m60.6647687 8.7369672c-.50215-.33585828-1.1807901-.19998087-1.5157389.30353261l-3.7308814 5.61042219-3.4467487-2.5915329c-.4809767-.3655815-1.1664469-.270796-1.5310384.2114866-.0415271.0549263-.0777267.1135508-.108189.1753257l-4.2554342 8.535074-4.1592662 3.1317552c-.482889.3631159-.5806963 1.0498995-.2185636 1.5340998.3621326.4842002 1.0470564.5822731 1.5299455.2191571l4.3712729-3.2873568c.1376951-.1016341.2499822-.2340872.3278455-.3868123l3.7844295-7.5916025 3.318889 2.4994869c.4827525.363116 1.1678129.2651801 1.5299455-.2190201.0121576-.0161629.0237688-.0327366.0349702-.0494474l4.3712729-6.5747135c.3349488-.50351347.1994394-1.18399632-.3027106-1.5198546z"/><path d="m39.5253759 8.55263158h-13.1954887c-.6072674 0-1.099624.4786801-1.099624 1.06907895 0 .59039887.4923566 1.06907897 1.099624 1.06907897h13.1954887c.6072674 0 1.0996241-.4786801 1.0996241-1.06907897 0-.59039885-.4923567-1.06907895-1.0996241-1.06907895z"/><path d="m45.5427632 8.55263158h-2.1381579c-.5903989 0-1.069079.4786801-1.069079 1.06907895 0 .59039887.4786801 1.06907897 1.069079 1.06907897h2.1381579c.5903988 0 1.0690789-.4786801 1.0690789-1.06907897 0-.59039885-.4786801-1.06907895-1.0690789-1.06907895z"/></g></svg>