<svg height="65" viewBox="0 0 66 65" width="66" xmlns="http://www.w3.org/2000/svg"><g fill="#731982" transform=""><circle cx="1.27451" cy="63.72549" r="1.27451"/><circle cx="34.093137" cy="31.22549" r="1.27451"/><path d="m50.6702019 14.9692403c-1.0235571-1.0234384-2.3844531-1.5868874-3.8319666-1.5868874s-2.8085363.5637026-3.8319666 1.5868874c-2.1129334 2.1125532-2.1129334 5.5497948 0 7.6622212 1.0566569 1.0562766 2.4440581 1.5842248 3.8319666 1.5842248 1.387528 0 2.7755633-.5282017 3.8319666-1.5842248 2.1129334-2.1125532 2.1129334-5.5497948 0-7.6622212zm-1.8004511 5.8619485c-1.1201933 1.1197978-2.9429645 1.1197978-4.0629042 0-1.1201933-1.1197977-1.1201933-2.9420049 0-4.0619294.542659-.5425289 1.2640062-.841243 2.0313887-.841243s1.4887297.2987141 2.0313887.841243c1.1201933 1.1199245 1.1201933 2.9421317.0001268 4.0619294z"/><path d="m15.8673163 52.3163593c-.6254498-.3114654-1.3847085-.0568248-1.6961734.5684999l-1.5066736 3.0258254c-.6551851 1.315538-1.972863 2.1952512-3.43921758 2.2955451l-1.75236804.1199494c-.29621925.0197816-.4910108-.1277612-.58109875-.2178493s-.23800857-.2852579-.21784903-.5812256l.11994926-1.7522447c.10041971-1.4662307.98013165-2.7840366 2.29554166-3.4392226l3.02569498-1.5066759c.6254498-.3114653.879964-1.0708511.5684991-1.6961758-.3113389-.6253247-1.0707236-.8799652-1.6961734-.5684999l-3.02569497 1.5066759c-2.11574375 1.0535895-3.53043949 3.1728643-3.69196781 5.53103l-.11994927 1.7522447c-.06476252.9458618.28248556 1.872698.95279028 2.5430037.61713393.6171349 1.45186489.9606035 2.31872512.9606035.07446431 0 .1494326-.0025199.22427489-.0076858l1.75236804-.1199494c2.35816222-.1614026 4.47743392-1.5759744 5.53102192-3.6919733l1.5066736-3.0256995c.3114649-.6254506.0569507-1.3847104-.568373-1.6961758z"/><path d="m64.4348549.85402213c-.6010322-.59266604-1.4290304-.90259934-2.2700417-.84781509l-1.1926236.07611053c-10.693679.68333461-20.7014847 5.85003901-27.4572606 14.17545803l-2.8072837 3.4593256-7.3464742-.2159445c-.0125029-.0003831-.0251334-.0005108-.0375087-.0005108-5.8263512 0-11.3040246 2.2710564-15.42398522 6.3948167l-7.52444912 7.5317497c-.35786361.3582047-.47153793.8939155-.28986314 1.3666692.18167479.4728813.6243795.7944355 1.12985387.8202314l15.92767351.8190821-.6493853.8003098c-.3272443.4034114-.379042.964535-.1308977 1.4209427.2495476.4592172.5110879.9111554.7838552 1.3558146l-3.7771515 4.4883501c-.3229065.3837452-.3924379.9208608-.1782301 1.3744591.8250638 1.7450509 1.9200882 3.3129789 3.2550917 4.6602374 1.3674089 1.3802056 2.9663767 2.5088379 4.75225 3.3548652.1745303.082751.3616911.1232326.5477036.1232326.2884597 0 .5744955-.0975645.8072025-.2864361.8137091-.6607313 1.7518093-1.4444399 2.6591626-2.2022249.6467061-.5401804 1.3083392-1.0927479 1.9267224-1.6022798.3690907.2223295.7427743.4378909 1.1220714.6443854.1918813.1044604.4022617.1559244.6118766.1559244.2788912 0 .5559963-.090924.7853862-.2691963l.8730341-.6780988.8218743 16.0100282c.0260265.5059562.3471469.9490829.8194503 1.1309309.1495244.057466.3049176.0855605.4592902.0855605.3336233 0 .6612503-.1306394.9059499-.3757l7.5245767-7.5317496c4.1199606-4.123888 6.3887265-9.6066554 6.3887265-15.4386884v-7.022984l2.968418-2.3056637c8.8960683-6.9099675 14.314034-17.329703 14.8646719-28.58767589l.0304917-.62395308c.0415913-.84334551-.2794015-1.66676947-.8801786-2.2595632zm-60.21128537 30.34741257 5.48749713-5.4927282c3.63158204-3.6350438 8.45897704-5.6389472 13.59409654-5.6439276l5.3692299.15784-9.5315472 11.7460508zm19.34772687 16.3525256c-.66865.5583141-1.3541406 1.1309309-1.9902575 1.6546377-1.2303874-.6669887-2.3434006-1.4992241-3.3160752-2.4809988-.9420552-.9507431-1.7438993-2.0332749-2.3904778-3.2257583l2.7654372-3.2861614c.8361633 1.1228857 1.7514266 2.1865175 2.7401763 3.182978.0007655.0007662.001531.0014047.0022965.002171.0002551.0002554.0005103.0006385.0007655.0008939.0003827.0003831.0007654.0006385.0011482.0010216 1.0963002 1.1043688 2.2755277 2.1178137 3.5264556 3.0343326-.4416841.3670162-.8942125.7450148-1.3394688 1.1168837zm21.3188472-5.9000983c0 5.1470382-2.0023776 9.985931-5.6385526 13.6255722l-5.4874971 5.4927282-.7657388-14.9145985 11.8916609-9.2367021v5.0330002zm17.8361518-38.04159948c-.5140223 10.50951018-5.5718279 20.23658878-13.87656 26.68721138l-20.0888426 15.6038074c-1.6659476-.974368-3.2187312-2.1248374-4.6398516-3.428294l6.7727442-6.7792004c.500116-.5005927.500116-1.3125235 0-1.8132439-.5002436-.5007205-1.3112735-.5007205-1.8115171 0l-6.7663651 6.7728153c-1.2440385-1.3785456-2.3458247-2.8785359-3.2839249-4.482859l16.4714221-20.2981413c6.3065646-7.77182978 15.6490374-12.59514288 25.6318372-13.23288781l1.1926236-.07611052c.1562862-.00970537.2609023.06793758.3091278.11544281.0480979.04737753.1275806.15043322.1199258.30763466z"/></g></svg>