<svg height="65" viewBox="0 0 63 65" width="63" xmlns="http://www.w3.org/2000/svg"><path d="m60.9167371 38.0724671h-.973231v-8.7616743c0-1.3870905-.6907374-2.6152357-1.7456425-3.3614665v-1.1929791c0-1.7304989-1.4085301-3.1382828-3.1399463-3.1382828h-.7266842l2.7803514-4.0777364c.9319493-1.3667781.5775621-3.2366716-.7899404-4.1682541l-18.8664793-12.85020167c-.6624118-.45131858-1.4608626-.61788116-2.2488976-.46845726-.7876541.14917-1.4701351.59591826-1.9215659 1.25810609l-16.2841529 23.88281464h-4.5314557l1.0932653-11.0614313c.012321-.124668.09336-.2327052.2064083-.2752345 1.4085301-.5307913 2.6291969-1.5220418 3.4370472-2.7910659.0636373-.0999121.1836716-.1570411.3078977-.1444727l7.1074311.7017972c.5096061.0493848.9629422-.3215724 1.0132423-.8306547.0503002-.5090823-.3217428-.96243209-.831095-1.01270556l-7.1074311-.70179722c-.824998-.08074223-1.6117629.29922866-2.0537942.99340868-.5939477.9331059-1.4914745 1.6618172-2.5270725 2.0520713-.7795247.2937697-1.314789.9935357-1.3970982 1.8264756l-1.1111752 11.2434821h-1.18167157l1.72900277-17.49465712c.0622401-.62968781.6245597-1.09230523 1.2553435-1.02920949l14.362714 1.41806711c.5093521.04913088.9629423-.32157243 1.0132424-.83065471.0503001-.50908229-.3217429-.96243212-.831095-1.01270558l-14.3627141-1.41806711c-1.6466935-.16237313-3.11924195 1.04431692-3.28195519 2.69039196l-1.39366874 14.10069064h-2.37337771c-1.73128918 0-3.13994633 1.4077839-3.13994633 3.1382828v.8137699c-1.4164054.6517777-2.40259243 2.082794-2.40259243 3.7406757v31.5726231c0 2.269923 1.84763994 4.1165841 4.11889319 4.1165841h51.70584681c2.2711262 0 4.1187661-1.8466611 4.1187661-4.1165841v-8.7615473h.973231c1.1487732 0 2.0832629-.9339946 2.0832629-2.0820323v-9.88521c.000127-1.1481646-.9344897-2.0821592-2.0832629-2.0821592zm-5.8588198-14.6019018c.7095364-.000127 1.2865905.5767483 1.2865905 1.2859088v.471885c-.1704615-.021582-.3435904-.0338965-.5197678-.0338965h-3.9319191l1.1753205-1.7238973zm-20.2417301-21.11599684c.1727479-.25327161.433775-.4241506.7350676-.48127954.0720206-.01358399.1442952-.02043946.2160618-.02043946.2282558 0 .4513038.06830081.6441209.19957041l18.8664793 12.85020173c.5230703.3563576.6587282 1.0716118.3023087 1.5944051l-5.9300782 8.6970551h-1.4231375l2.9073718-4.2639768c.4715001-.691514.5103683-1.5715535.1011083-2.296837-.5439017-.9635747-.7644092-2.0981554-.6208761-3.194904.1066972-.8159281-.2525167-1.6124324-.9374112-2.0788584l-9.7803231-6.66148772c-.6850214-.46655296-1.5581602-.50933619-2.2788744-.11159185-.9685312.53447292-2.1057456.74432654-3.2019324.59096709-.8129311-.11400396-1.637421.25289075-2.1019349.93399461l-11.6476512 17.08282097h-1.4231375zm.4081169 15.72835744c-4.0355678 0-7.348262 3.1450113-7.6181805 7.1112828h-4.6970904l10.9363365-16.03964663h.000127c.062113-.09127934.1651266-.1456153.2709347-.1456153.0140993 0 .0281986.00101562.0422978.00291992 1.4909665.20845713 3.0374408-.07667973 4.3548973-.80374063.1036487-.05738285.2367662-.04913089.3393987.02069337l9.7804501 6.66161467c.1023785.0698242.1586486.1906837.1434062.3079884-.1952305 1.491573.1047919 3.0345621.8444321 4.3449729.0593186.1052442.0520784.2400684-.0182909.3435353l-3.6185595 5.3071511h-3.1415976c-.2701726-3.9661446-3.5827397-7.1111559-7.6185615-7.1111559zm5.7601248 7.1114098h-11.5201227c.2654728-2.9439175 2.746691-5.2589089 5.7599979-5.2589089 3.0134339-.0001269 5.494779 2.3149914 5.7601248 5.2589089zm-36.72848061-.4379885c0-.7091605.57705405-1.2860358 1.28659047-1.2860358h2.1903412l-.17033447 1.7238973h-3.3065972zm-2.40259243 4.5544456c0-1.2484577 1.01629088-2.2642101 2.26553733-2.2642101h51.70584681c1.2492464 0 2.2654103 1.0157524 2.2654103 2.2642101v2.5700403h-56.23679444zm56.23679444 31.5726231c0 1.2484577-1.0161639 2.2642101-2.2654103 2.2642101h-51.70584681c-1.24924645 0-2.26553733-1.0157524-2.26553733-2.2642101v-2.5700403h4.99723983c.51189254 0 .92661442-.4146291.92661442-.9261235s-.4148489-.9261235-.92661442-.9261235h-4.99723983v-22.7279215h56.23679444v4.33926h-8.8109028-.000127c-2.7761597 0-5.1809115 1.6173836-6.3221905 3.9585273-.0038106.0078711-.0081293.0154883-.012067.0233594-.0096535.0199317-.0180369.040625-.0274364.0606836-.1359119.2885646-.254041.5872855-.3501955.8955278-.000254.0008887-.000508.0016504-.0007621.0025391-.2051381.6587601-.3157729 1.358653-.3157729 2.0840635 0 3.8734688 3.1529024 7.0247008 7.0282973 7.0247008h.0001271 8.8109027v4.33926h-45.3057927c-.5118925 0-.9266144.4146291-.9266144.9261235s.4148489.9261235.9266144.9261235h45.3059198zm3.0566209-10.8437065c0 .1266992-.1031407.2297852-.2300341.2297852h-11.6373626c-1.9618314 0-3.6722892-1.0967486-4.5496196-2.7089271-.0398845-.073252-.0779906-.1476466-.1144455-.2229298-.0727827-.1506934-.1384523-.3054494-.1965007-.4638869-.2034868-.5542777-.3145027-1.152735-.3145027-1.776583 0-.6238479.1111429-1.2223053.3145027-1.7765829.0581754-.1583106.123845-.3130665.1965007-.4638869.0364549-.0752833.074561-.1496778.1144455-.2229298.8773304-1.6121786 2.5877882-2.7089272 4.5496196-2.7089272h11.6373626c.1267664 0 .2300341.103086.2300341.2297853z" fill="#731982" transform=""/></svg>